<svg xmlns="http://www.w3.org/2000/svg" width="440" height="648" viewBox="0 0 440 648">
  <!-- Fond -->
  <rect width="440" height="648" rx="12" fill="#1e1e2e"/>
  <!-- Titre -->
  <text x="16" y="28" font-size="16" font-weight="bold" fill="#89b4fa">⚡ Stack — Caro639</text>
  <text x="424" y="28" font-size="10" fill="#585b70" text-anchor="end">màj 06 mars 2026</text>
  <!-- Séparateur -->
  <line x1="16" y1="38" x2="424" y2="38" stroke="#313244" stroke-width="1"/>
  <!-- Langages -->
  <text x="16" y="66" font-size="14" font-weight="bold" fill="#cdd6f4">Langages</text><rect x="16" y="80" width="280" height="18" rx="4" fill="#3b82f6" opacity="0.9"/><text x="302" y="93" font-size="11" fill="#a6adc8">PHP · 17 (30%)</text><rect x="16" y="108" width="231" height="18" rx="4" fill="#10b981" opacity="0.9"/><text x="253" y="121" font-size="11" fill="#a6adc8">JavaScript · 14 (25%)</text><rect x="16" y="136" width="165" height="18" rx="4" fill="#f59e0b" opacity="0.9"/><text x="187" y="149" font-size="11" fill="#a6adc8">HTML · 10 (18%)</text><rect x="16" y="164" width="82" height="18" rx="4" fill="#ef4444" opacity="0.9"/><text x="104" y="177" font-size="11" fill="#a6adc8">TypeScript · 5 (9%)</text><rect x="16" y="192" width="82" height="18" rx="4" fill="#8b5cf6" opacity="0.9"/><text x="104" y="205" font-size="11" fill="#a6adc8">CSS · 5 (9%)</text><rect x="16" y="220" width="49" height="18" rx="4" fill="#ad45c6" opacity="0.9"/><text x="71" y="233" font-size="11" fill="#a6adc8">C# · 3 (5%)</text><rect x="16" y="248" width="16" height="18" rx="4" fill="#06b6d4" opacity="0.9"/><text x="38" y="261" font-size="11" fill="#a6adc8">Dockerfile · 1 (2%)</text><rect x="16" y="276" width="16" height="18" rx="4" fill="#84cc16" opacity="0.9"/><text x="38" y="289" font-size="11" fill="#a6adc8">Python · 1 (2%)</text>
  <!-- Séparateur intermédiaire -->
  <line x1="16" y1="320" x2="424" y2="320" stroke="#313244" stroke-width="1" stroke-dasharray="4 4"/>
  <!-- Frameworks -->
  <text x="16" y="350" font-size="14" font-weight="bold" fill="#cdd6f4">Frameworks &amp; Librairies</text><rect x="16" y="364" width="280" height="18" rx="4" fill="#ad45c6" opacity="0.9"/><text x="302" y="377" font-size="11" fill="#a6adc8">Symfony · 11 (44%)</text><rect x="16" y="392" width="76" height="18" rx="4" fill="#06b6d4" opacity="0.9"/><text x="98" y="405" font-size="11" fill="#a6adc8">.NET · 3 (12%)</text><rect x="16" y="420" width="76" height="18" rx="4" fill="#84cc16" opacity="0.9"/><text x="98" y="433" font-size="11" fill="#a6adc8">React · 3 (12%)</text><rect x="16" y="448" width="51" height="18" rx="4" fill="#f97316" opacity="0.9"/><text x="73" y="461" font-size="11" fill="#a6adc8">Angular · 2 (8%)</text><rect x="16" y="476" width="51" height="18" rx="4" fill="#a78bfa" opacity="0.9"/><text x="73" y="489" font-size="11" fill="#a6adc8">Next.js · 2 (8%)</text><rect x="16" y="504" width="25" height="18" rx="4" fill="#34d399" opacity="0.9"/><text x="47" y="517" font-size="11" fill="#a6adc8">Express · 1 (4%)</text><rect x="16" y="532" width="25" height="18" rx="4" fill="#fbbf24" opacity="0.9"/><text x="47" y="545" font-size="11" fill="#a6adc8">Vite · 1 (4%)</text><rect x="16" y="560" width="25" height="18" rx="4" fill="#3b82f6" opacity="0.9"/><text x="47" y="573" font-size="11" fill="#a6adc8">Django · 1 (4%)</text><rect x="16" y="588" width="25" height="18" rx="4" fill="#10b981" opacity="0.9"/><text x="47" y="601" font-size="11" fill="#a6adc8">ASP.NET Core · 1 (4%)</text>
</svg>